<svg width="480" height="109" viewBox="0 0 960 219" xmlns="http://www.w3.org/2000/svg" xmlns:xlink="http://www.w3.org/1999/xlink"><defs><linearGradient x1="50%" y1="0%" x2="50%" y2="94.779%" id="b"><stop stop-color="#47FFD7" offset="0%"/><stop stop-color="#08FFC8" offset="100%"/></linearGradient><path d="M585.505 54.423c10.112 0 19.078 2.258 26.898 6.775s13.921 11.292 18.303 20.325c4.382 9.034 6.573 20.09 6.573 33.168s-2.191 24.134-6.573 33.167c-4.382 9.033-10.483 15.808-18.303 20.325-7.82 4.517-16.786 6.775-26.898 6.775-10.454 0-20.648-3.701-30.583-11.105l-.562-.423v55.414h-31.145V57.66h31.145v8.494l.555-.43c9.807-7.533 20.004-11.3 30.59-11.3zm-134.11 0c10.112 0 19.078 2.258 26.898 6.775s13.921 11.292 18.303 20.325c4.382 9.034 6.573 20.09 6.573 33.168s-2.191 24.134-6.573 33.167c-4.382 9.033-10.483 15.808-18.303 20.325-7.82 4.517-16.786 6.775-26.898 6.775-10.454 0-20.648-3.701-30.582-11.105l-.563-.423v55.414h-31.145V57.66h31.145v8.494l.555-.43c9.807-7.533 20.004-11.3 30.59-11.3zm462.346 0c12.674 0 26.156 2.427 40.448 7.28v26.899l-.722-.328c-5.093-2.276-10.953-4.122-17.58-5.537-6.944-1.483-13.854-2.225-20.73-2.225-5.933 0-10.079.742-12.438 2.225-2.36 1.483-3.54 3.64-3.54 6.471 0 2.427.742 4.214 2.225 5.36s3.843 2.123 7.079 2.932l17.999 3.843.684.14c11.11 2.306 19.24 6.102 24.394 11.387 5.258 5.393 7.887 13.483 7.887 24.27 0 12.538-4.213 21.976-12.64 28.313s-19.786 9.505-34.077 9.505c-9.303 0-17.494-.741-24.573-2.225-7.078-1.483-14.46-4.044-22.145-7.685V137.14l.89.496c7.127 3.922 14.347 6.757 21.66 8.504 7.618 1.82 15.674 2.73 24.168 2.73 10.112 0 15.168-3.37 15.168-10.112 0-2.696-.81-4.786-2.427-6.27-1.618-1.482-4.18-2.628-7.685-3.437l-18-3.843-.679-.145c-10.578-2.308-18.44-6.102-23.59-11.383-5.258-5.393-7.887-12.876-7.887-22.448 0-24.539 15.37-36.808 46.11-36.808zm-203.365 0c16.314 0 29.089 4.786 38.325 14.36 9.107 9.439 13.724 23.205 13.85 41.298l.003.767v12.337h-74.02l.075.51c2.566 16.783 13.192 25.174 31.88 25.174 5.123 0 10.145-.674 15.066-2.022 4.707-1.29 10-3.32 15.88-6.09l.805-.382 8.292 24.269-.86.466c-6.587 3.529-13.143 6.036-19.668 7.522-6.808 1.55-14.662 2.326-23.56 2.326-12.944 0-24-2.528-33.168-7.584-9.168-5.056-16.112-12.134-20.83-21.235-4.72-9.1-7.08-19.651-7.08-31.65 0-12.674 2.428-23.528 7.281-32.561 4.854-9.034 11.46-15.876 19.82-20.528 8.36-4.651 17.662-6.977 27.91-6.977zm-522.524 0c12.674 0 26.156 2.427 40.448 7.28v26.899l-.722-.328c-5.093-2.276-10.953-4.122-17.58-5.537-6.944-1.483-13.854-2.225-20.73-2.225-5.933 0-10.079.742-12.438 2.225-2.36 1.483-3.54 3.64-3.54 6.471 0 2.427.742 4.214 2.225 5.36s3.843 2.123 7.079 2.932l18 3.843.683.14c11.11 2.306 19.24 6.102 24.394 11.387 5.258 5.393 7.887 13.483 7.887 24.27 0 12.538-4.213 21.976-12.64 28.313-8.426 6.337-19.786 9.505-34.077 9.505-9.303 0-17.494-.741-24.572-2.225-7.079-1.483-14.46-4.044-22.146-7.685V137.14l.89.496c7.127 3.922 14.347 6.757 21.66 8.504 7.618 1.82 15.674 2.73 24.168 2.73 10.112 0 15.168-3.37 15.168-10.112 0-2.696-.81-4.786-2.427-6.27-1.618-1.482-4.18-2.628-7.685-3.437l-18-3.843-.678-.145c-10.578-2.308-18.442-6.102-23.59-11.383-5.259-5.393-7.888-12.876-7.888-22.448 0-24.539 15.37-36.808 46.11-36.808zM288.567.425v133.276l.003.465c.048 4.603.823 7.785 2.323 9.546 1.55 1.82 4.348 2.73 8.393 2.73 4.18 0 8.022-.54 11.528-1.618v26.898l-.805.165c-7.465 1.508-13.735 2.262-18.812 2.262-22.516 0-33.774-9.842-33.774-29.527V.425h31.144zM57.205 36.064l-3.843 28.515H75.61l3.64-28.515h28.314l-3.843 28.515h14.561v27.91h-17.999l-3.034 23.46h14.966v27.908H93.608l-3.64 28.516H61.654l3.843-28.516H43.25l-3.64 28.516H11.296l3.843-28.516H.578v-27.909h18l3.033-23.46H6.645V64.58H25.25l3.64-28.515h28.314zm794.941 19.168v27.91h-4.651l-.592.003c-10.451.142-20.838 4.05-31.16 11.726v76.649h-31.145V57.659h31.145v10.92l.537-.455c10.21-8.595 20.615-12.892 31.215-12.892h4.651zm-489.963 2.427V171.52h-31.145V57.659h31.145zm216.85 24.673c-7.913 0-15.956 2.903-24.128 8.71l-.545.391v46.515l.542.392c8.302 5.94 16.346 8.911 24.132 8.911 8.494 0 14.932-2.764 19.314-8.292 4.381-5.528 6.572-13.617 6.572-24.268 0-10.517-2.19-18.54-6.572-24.067-4.382-5.528-10.82-8.292-19.314-8.292zm-134.11 0c-7.913 0-15.956 2.903-24.128 8.71l-.545.391v46.515l.542.392c8.302 5.94 16.346 8.911 24.132 8.911 8.494 0 14.932-2.764 19.314-8.292 4.382-5.528 6.572-13.617 6.572-24.268 0-10.517-2.19-18.54-6.572-24.067-4.382-5.528-10.82-8.292-19.314-8.292zM71.969 92.49H49.924l-3.033 23.46h22.044l3.033-23.46zm638.408-11.977c-5.663 0-10.28 1.483-13.853 4.45-3.474 2.883-5.896 7.551-7.267 14.003l-.115.558h40.852c-.674-6.607-2.629-11.427-5.865-14.46-3.235-3.034-7.82-4.551-13.752-4.551zm-348.193-72.2v30.539h-31.145V8.312h31.145z" id="a"/></defs><g fill="none" fill-rule="evenodd"><mask id="c" fill="#fff"><use xlink:href="#a"/></mask><use fill="#00ECC1" fill-rule="nonzero" xlink:href="#a"/><path fill="url(#b)" mask="url(#c)" d="M-36.693 0h1041.92v218.453H-36.693z"/></g></svg>
